<svg width="153" height="162" viewBox="0 0 153 162" fill="none" xmlns="http://www.w3.org/2000/svg">
<g filter="url(#filter0_ddd_33_1743)">
<path d="M50.7033 54.448C55.5026 59.4864 60.153 64.844 64.7054 70.0781C69.2452 75.4229 73.6742 80.7549 78.0905 86.1975C82.5068 91.6402 86.8125 97.07 90.982 102.708C93.0114 105.521 95.1515 108.347 97.0575 111.257C99.0742 114.181 100.98 117.091 102.763 120.1C104.363 122.751 107.839 123.713 110.613 122.015C113.264 120.416 114.226 116.939 112.529 114.165C112.248 113.684 111.954 113.314 111.648 113.054C109.125 110.633 106.738 108.003 104.338 105.484C101.952 102.854 99.6754 100.237 97.3991 97.6198C92.8594 92.2751 88.5537 86.8452 84.2608 81.3047C79.9679 75.7642 75.7857 70.2365 71.6162 64.5982C67.4467 58.9598 63.4006 53.2236 59.5885 47.4024C57.8782 44.7385 54.3636 44.1085 51.6997 45.8188C49.0359 47.5291 48.4059 51.0437 50.1162 53.7076C50.2012 53.9416 50.5076 54.2012 50.7033 54.448Z" fill="#B935B3"/>
<path d="M67.1394 67.4445C70.6027 71.4318 74.066 75.4192 77.4059 79.5043C80.7458 83.5895 84.0857 87.6747 87.4256 91.7598C90.7655 95.845 93.9819 100.028 97.1984 104.211C98.7513 106.296 100.415 108.394 101.955 110.59C103.508 112.675 105.048 114.871 106.588 117.066C107.933 119.015 109.932 120.143 111.226 119.62C112.409 119.084 112.43 116.956 111.086 115.007C110.903 114.65 110.597 114.39 110.401 114.144C108.614 112.143 106.814 110.254 105.151 108.156C103.474 106.169 101.688 104.169 100.024 102.071C96.6841 97.9858 93.3442 93.9006 90.1277 89.7176C86.9112 85.5346 83.6948 81.3516 80.4783 77.1685C77.2618 72.9855 74.1687 68.7047 71.0757 64.4238C69.7312 62.4748 67.608 61.4449 66.5229 62.1044C65.3272 62.751 65.5398 64.7935 66.8842 66.7424C66.8459 67.0743 67.0544 67.2105 67.1394 67.4445Z" fill="white" fill-opacity="0.1"/>
<g filter="url(#filter1_ii_33_1743)">
<path d="M78.0933 41.4242L89.6133 56.031C91.5658 58.5067 91.3764 62.0853 89.3144 64.435L69.8866 39.8015C72.5216 38.3055 76.0303 38.9357 78.0933 41.4242Z" fill="url(#paint0_linear_33_1743)"/>
</g>
<g filter="url(#filter2_ii_33_1743)">
<path d="M40.7669 62.8297L60.2403 87.3875C57.4786 88.9744 53.964 88.3443 51.8962 85.8634L40.3492 71.3015C38.392 68.8334 38.5923 65.157 40.7669 62.8297Z" fill="url(#paint1_linear_33_1743)"/>
</g>
<path d="M54.5037 48.7211C55.7334 48.751 56.7079 48.0787 56.6866 47.2916C56.6654 46.5044 55.7336 45.8362 54.5039 45.8063C53.2742 45.7764 52.2997 46.4487 52.3209 47.2359C52.3422 48.0231 53.274 48.6912 54.5037 48.7211Z" fill="#C679C2"/>
<g filter="url(#filter3_ii_33_1743)">
<path fill-rule="evenodd" clip-rule="evenodd" d="M55.4942 51.1109L69.0553 40.3576C69.1786 40.2597 69.3297 40.1651 69.4808 40.0704L69.4808 40.0704C69.6318 39.9757 69.7829 39.8811 69.9063 39.7832L89.3797 64.341C89.1201 64.6473 88.8733 64.843 88.6265 65.0387L75.0519 75.8029L75.0227 75.7661L60.968 86.911L60.968 86.911C60.7212 87.1067 60.4744 87.3024 60.2404 87.3875L40.767 62.8297C40.8904 62.7319 40.9862 62.6308 41.0819 62.5298C41.1777 62.4287 41.2734 62.3276 41.3968 62.2298L55.4651 51.0742L55.4942 51.1109Z" fill="url(#paint2_linear_33_1743)"/>
</g>
<path d="M60.3099 45.7315L61.071 46.6913L49.6399 55.7558L48.8788 54.7959L60.3099 45.7315Z" fill="#8C137A"/>
<path d="M108.763 117.654C109.201 118.714 110.145 119.271 110.737 119.003C111.328 118.735 111.567 117.641 111.129 116.582C110.69 115.522 109.746 114.965 109.154 115.233C108.439 115.599 108.324 116.594 108.763 117.654Z" fill="#C679C2"/>
<g filter="url(#filter4_ddi_33_1743)">
<path d="M73.471 57.2471C77.0749 61.7901 76.3136 68.3946 71.7705 71.9986C67.2274 75.6026 60.6229 74.8413 57.019 70.2982C53.415 65.7551 54.1763 59.1506 58.7194 55.5466C63.2625 51.9426 69.867 52.704 73.471 57.2471Z" fill="#FFDF35"/>
</g>
<path fill-rule="evenodd" clip-rule="evenodd" d="M60.1262 64.3203L59.2949 68.3055C59.1879 68.8209 59.4726 69.0243 59.9332 68.7621L62.5038 67.2708C62.5959 67.2174 62.7239 67.2432 62.7977 67.3196C62.9253 67.4539 63.1598 67.6706 63.4122 67.7526C63.6639 67.8332 63.9905 67.7933 64.1746 67.7609C64.2815 67.7417 64.3901 67.7929 64.4321 67.8898L65.5981 70.5812C65.8056 71.0601 66.1605 71.0622 66.3879 70.5862L68.1334 66.9127C68.1334 66.9127 67.9655 66.4978 67.5456 65.9821C67.2817 65.658 67.0355 65.3989 66.8904 65.2518C66.8159 65.1774 66.8115 65.054 66.8794 64.9721C67.2203 64.5586 68.0903 63.3098 68.3091 61.9148C68.5804 60.1871 68.434 58.9383 68.102 57.8123C67.9782 57.3936 67.7683 56.9444 67.5655 56.5582C67.4444 56.3296 67.1449 56.2325 66.9075 56.3455C66.5066 56.5344 66.0585 56.7709 65.7028 57.0367C64.7499 57.7459 63.8697 58.6622 63.0342 60.206C62.3591 61.4551 62.2948 62.9645 62.3164 63.4952C62.3197 63.6005 62.2412 63.6971 62.1366 63.7136C61.9302 63.7455 61.5752 63.8096 61.1641 63.9166C60.5143 64.0862 60.1262 64.3203 60.1262 64.3203ZM64.6202 61.2864C64.3472 60.6563 64.6367 59.9247 65.2671 59.6516C65.8975 59.3785 66.6292 59.6676 66.9022 60.2977C67.1752 60.9278 66.8857 61.6594 66.2553 61.9325C65.6249 62.2056 64.8932 61.9165 64.6202 61.2864Z" fill="#2D43A7"/>
</g>
<defs>
<filter id="filter0_ddd_33_1743" x="0" y="0" width="152.376" height="161.863" filterUnits="userSpaceOnUse" color-interpolation-filters="sRGB">
<feFlood flood-opacity="0" result="BackgroundImageFix"/>
<feColorMatrix in="SourceAlpha" type="matrix" values="0 0 0 0 0 0 0 0 0 0 0 0 0 0 0 0 0 0 127 0" result="hardAlpha"/>
<feOffset/>
<feGaussianBlur stdDeviation="19.5"/>
<feColorMatrix type="matrix" values="0 0 0 0 1 0 0 0 0 1 0 0 0 0 1 0 0 0 1 0"/>
<feBlend mode="normal" in2="BackgroundImageFix" result="effect1_dropShadow_33_1743"/>
<feColorMatrix in="SourceAlpha" type="matrix" values="0 0 0 0 0 0 0 0 0 0 0 0 0 0 0 0 0 0 127 0" result="hardAlpha"/>
<feOffset/>
<feGaussianBlur stdDeviation="9.5"/>
<feColorMatrix type="matrix" values="0 0 0 0 0.525 0 0 0 0 0.858333 0 0 0 0 1 0 0 0 1 0"/>
<feBlend mode="normal" in2="effect1_dropShadow_33_1743" result="effect2_dropShadow_33_1743"/>
<feColorMatrix in="SourceAlpha" type="matrix" values="0 0 0 0 0 0 0 0 0 0 0 0 0 0 0 0 0 0 127 0" result="hardAlpha"/>
<feOffset/>
<feGaussianBlur stdDeviation="4"/>
<feColorMatrix type="matrix" values="0 0 0 0 1 0 0 0 0 1 0 0 0 0 1 0 0 0 1 0"/>
<feBlend mode="normal" in2="effect2_dropShadow_33_1743" result="effect3_dropShadow_33_1743"/>
<feBlend mode="normal" in="SourceGraphic" in2="effect3_dropShadow_33_1743" result="shape"/>
</filter>
<filter id="filter1_ii_33_1743" x="69.8865" y="39" width="21.0884" height="25.435" filterUnits="userSpaceOnUse" color-interpolation-filters="sRGB">
<feFlood flood-opacity="0" result="BackgroundImageFix"/>
<feBlend mode="normal" in="SourceGraphic" in2="BackgroundImageFix" result="shape"/>
<feColorMatrix in="SourceAlpha" type="matrix" values="0 0 0 0 0 0 0 0 0 0 0 0 0 0 0 0 0 0 127 0" result="hardAlpha"/>
<feOffset/>
<feGaussianBlur stdDeviation="1"/>
<feComposite in2="hardAlpha" operator="arithmetic" k2="-1" k3="1"/>
<feColorMatrix type="matrix" values="0 0 0 0 0.216667 0 0 0 0 0.76424 0 0 0 0 1 0 0 0 1 0"/>
<feBlend mode="normal" in2="shape" result="effect1_innerShadow_33_1743"/>
<feColorMatrix in="SourceAlpha" type="matrix" values="0 0 0 0 0 0 0 0 0 0 0 0 0 0 0 0 0 0 127 0" result="hardAlpha"/>
<feOffset/>
<feGaussianBlur stdDeviation="1.5"/>
<feComposite in2="hardAlpha" operator="arithmetic" k2="-1" k3="1"/>
<feColorMatrix type="matrix" values="0 0 0 0 1 0 0 0 0 1 0 0 0 0 1 0 0 0 1 0"/>
<feBlend mode="normal" in2="effect1_innerShadow_33_1743" result="effect2_innerShadow_33_1743"/>
</filter>
<filter id="filter2_ii_33_1743" x="39" y="62.8297" width="21.2402" height="25.4273" filterUnits="userSpaceOnUse" color-interpolation-filters="sRGB">
<feFlood flood-opacity="0" result="BackgroundImageFix"/>
<feBlend mode="normal" in="SourceGraphic" in2="BackgroundImageFix" result="shape"/>
<feColorMatrix in="SourceAlpha" type="matrix" values="0 0 0 0 0 0 0 0 0 0 0 0 0 0 0 0 0 0 127 0" result="hardAlpha"/>
<feOffset/>
<feGaussianBlur stdDeviation="1"/>
<feComposite in2="hardAlpha" operator="arithmetic" k2="-1" k3="1"/>
<feColorMatrix type="matrix" values="0 0 0 0 0.107043 0 0 0 0 0.722509 0 0 0 0 0.9875 0 0 0 1 0"/>
<feBlend mode="normal" in2="shape" result="effect1_innerShadow_33_1743"/>
<feColorMatrix in="SourceAlpha" type="matrix" values="0 0 0 0 0 0 0 0 0 0 0 0 0 0 0 0 0 0 127 0" result="hardAlpha"/>
<feOffset/>
<feGaussianBlur stdDeviation="1"/>
<feComposite in2="hardAlpha" operator="arithmetic" k2="-1" k3="1"/>
<feColorMatrix type="matrix" values="0 0 0 0 1 0 0 0 0 1 0 0 0 0 1 0 0 0 1 0"/>
<feBlend mode="normal" in2="effect1_innerShadow_33_1743" result="effect2_innerShadow_33_1743"/>
</filter>
<filter id="filter3_ii_33_1743" x="40.7671" y="39.7832" width="48.6125" height="47.6043" filterUnits="userSpaceOnUse" color-interpolation-filters="sRGB">
<feFlood flood-opacity="0" result="BackgroundImageFix"/>
<feBlend mode="normal" in="SourceGraphic" in2="BackgroundImageFix" result="shape"/>
<feColorMatrix in="SourceAlpha" type="matrix" values="0 0 0 0 0 0 0 0 0 0 0 0 0 0 0 0 0 0 127 0" result="hardAlpha"/>
<feOffset/>
<feGaussianBlur stdDeviation="1.5"/>
<feComposite in2="hardAlpha" operator="arithmetic" k2="-1" k3="1"/>
<feColorMatrix type="matrix" values="0 0 0 0 0.920833 0 0 0 0 0.976173 0 0 0 0 1 0 0 0 1 0"/>
<feBlend mode="normal" in2="shape" result="effect1_innerShadow_33_1743"/>
<feColorMatrix in="SourceAlpha" type="matrix" values="0 0 0 0 0 0 0 0 0 0 0 0 0 0 0 0 0 0 127 0" result="hardAlpha"/>
<feOffset/>
<feGaussianBlur stdDeviation="1.5"/>
<feComposite in2="hardAlpha" operator="arithmetic" k2="-1" k3="1"/>
<feColorMatrix type="matrix" values="0 0 0 0 0.595833 0 0 0 0 0.878358 0 0 0 0 1 0 0 0 1 0"/>
<feBlend mode="normal" in2="effect1_innerShadow_33_1743" result="effect2_innerShadow_33_1743"/>
</filter>
<filter id="filter4_ddi_33_1743" x="50.7446" y="49.2722" width="29.0007" height="29.0008" filterUnits="userSpaceOnUse" color-interpolation-filters="sRGB">
<feFlood flood-opacity="0" result="BackgroundImageFix"/>
<feColorMatrix in="SourceAlpha" type="matrix" values="0 0 0 0 0 0 0 0 0 0 0 0 0 0 0 0 0 0 127 0" result="hardAlpha"/>
<feOffset/>
<feGaussianBlur stdDeviation="2"/>
<feColorMatrix type="matrix" values="0 0 0 0 1 0 0 0 0 1 0 0 0 0 1 0 0 0 1 0"/>
<feBlend mode="normal" in2="BackgroundImageFix" result="effect1_dropShadow_33_1743"/>
<feColorMatrix in="SourceAlpha" type="matrix" values="0 0 0 0 0 0 0 0 0 0 0 0 0 0 0 0 0 0 127 0" result="hardAlpha"/>
<feOffset/>
<feGaussianBlur stdDeviation="1.5"/>
<feColorMatrix type="matrix" values="0 0 0 0 1 0 0 0 0 1 0 0 0 0 1 0 0 0 1 0"/>
<feBlend mode="normal" in2="effect1_dropShadow_33_1743" result="effect2_dropShadow_33_1743"/>
<feBlend mode="normal" in="SourceGraphic" in2="effect2_dropShadow_33_1743" result="shape"/>
<feColorMatrix in="SourceAlpha" type="matrix" values="0 0 0 0 0 0 0 0 0 0 0 0 0 0 0 0 0 0 127 0" result="hardAlpha"/>
<feOffset dy="-1"/>
<feComposite in2="hardAlpha" operator="arithmetic" k2="-1" k3="1"/>
<feColorMatrix type="matrix" values="0 0 0 0 0.152941 0 0 0 0 0.223529 0 0 0 0 0.635294 0 0 0 1 0"/>
<feBlend mode="normal" in2="shape" result="effect3_innerShadow_33_1743"/>
</filter>
<linearGradient id="paint0_linear_33_1743" x1="81.602" y1="39.9541" x2="78.9138" y2="63.234" gradientUnits="userSpaceOnUse">
<stop stop-color="#75C5E7"/>
<stop offset="1" stop-color="#2738A2"/>
</linearGradient>
<linearGradient id="paint1_linear_33_1743" x1="51.7019" y1="90.7055" x2="46.7617" y2="60.0674" gradientUnits="userSpaceOnUse">
<stop stop-color="#212D9D"/>
<stop offset="1" stop-color="#75C5E7"/>
</linearGradient>
<linearGradient id="paint2_linear_33_1743" x1="68.9303" y1="41.0643" x2="60.7762" y2="87.1024" gradientUnits="userSpaceOnUse">
<stop offset="0.0122211" stop-color="#2A68C6"/>
<stop offset="0.86635" stop-color="#86CEED"/>
</linearGradient>
</defs>
</svg>
